<svg width="1200" height="630" viewBox="0 0 1200 630" fill="none" xmlns="http://www.w3.org/2000/svg">
  <defs>
    <linearGradient id="bg" x1="76" y1="58" x2="1110" y2="586" gradientUnits="userSpaceOnUse">
      <stop stop-color="#07131B"/>
      <stop offset="1" stop-color="#0E2230"/>
    </linearGradient>
    <radialGradient id="glowA" cx="0" cy="0" r="1" gradientUnits="userSpaceOnUse" gradientTransform="translate(182 108) rotate(33.7) scale(472 286)">
      <stop stop-color="#4ADE80" stop-opacity="0.26"/>
      <stop offset="1" stop-color="#4ADE80" stop-opacity="0"/>
    </radialGradient>
    <radialGradient id="glowB" cx="0" cy="0" r="1" gradientUnits="userSpaceOnUse" gradientTransform="translate(1032 500) rotate(180) scale(360 240)">
      <stop stop-color="#2E8555" stop-opacity="0.24"/>
      <stop offset="1" stop-color="#2E8555" stop-opacity="0"/>
    </radialGradient>
    <linearGradient id="panelStroke" x1="120" y1="80" x2="1060" y2="550" gradientUnits="userSpaceOnUse">
      <stop stop-color="#4ADE80" stop-opacity="0.34"/>
      <stop offset="1" stop-color="#D7DEE5" stop-opacity="0.14"/>
    </linearGradient>
    <filter id="shadow" x="84" y="56" width="1032" height="518" filterUnits="userSpaceOnUse" color-interpolation-filters="sRGB">
      <feFlood flood-opacity="0" result="BackgroundImageFix"/>
      <feColorMatrix in="SourceAlpha" type="matrix" values="0 0 0 0 0 0 0 0 0 0 0 0 0 0 0 0 0 0 127 0" result="hardAlpha"/>
      <feOffset dy="18"/>
      <feGaussianBlur stdDeviation="18"/>
      <feColorMatrix type="matrix" values="0 0 0 0 0.00784314 0 0 0 0 0.0470588 0 0 0 0 0.0862745 0 0 0 0.34 0"/>
      <feBlend mode="normal" in2="BackgroundImageFix" result="effect1_dropShadow_1_1"/>
      <feBlend mode="normal" in="SourceGraphic" in2="effect1_dropShadow_1_1" result="shape"/>
    </filter>
  </defs>

  <rect width="1200" height="630" rx="36" fill="#041018"/>
  <rect width="1200" height="630" rx="36" fill="url(#bg)"/>
  <rect width="1200" height="630" rx="36" fill="url(#glowA)"/>
  <rect width="1200" height="630" rx="36" fill="url(#glowB)"/>

  <g opacity="0.13">
    <path d="M0 84.5H1200" stroke="#4ADE80"/>
    <path d="M0 168.5H1200" stroke="#4ADE80"/>
    <path d="M0 252.5H1200" stroke="#4ADE80"/>
    <path d="M0 336.5H1200" stroke="#4ADE80"/>
    <path d="M0 420.5H1200" stroke="#4ADE80"/>
    <path d="M0 504.5H1200" stroke="#4ADE80"/>
    <path d="M0 588.5H1200" stroke="#4ADE80"/>
    <path d="M72.5 0V630" stroke="#4ADE80"/>
    <path d="M144.5 0V630" stroke="#4ADE80"/>
    <path d="M216.5 0V630" stroke="#4ADE80"/>
    <path d="M288.5 0V630" stroke="#4ADE80"/>
    <path d="M360.5 0V630" stroke="#4ADE80"/>
    <path d="M432.5 0V630" stroke="#4ADE80"/>
    <path d="M504.5 0V630" stroke="#4ADE80"/>
    <path d="M576.5 0V630" stroke="#4ADE80"/>
    <path d="M648.5 0V630" stroke="#4ADE80"/>
    <path d="M720.5 0V630" stroke="#4ADE80"/>
    <path d="M792.5 0V630" stroke="#4ADE80"/>
    <path d="M864.5 0V630" stroke="#4ADE80"/>
    <path d="M936.5 0V630" stroke="#4ADE80"/>
    <path d="M1008.5 0V630" stroke="#4ADE80"/>
    <path d="M1080.5 0V630" stroke="#4ADE80"/>
    <path d="M1152.5 0V630" stroke="#4ADE80"/>
  </g>

  <g filter="url(#shadow)">
    <rect x="120" y="80" width="960" height="450" rx="30" fill="#0A1721" fill-opacity="0.84"/>
    <rect x="121" y="81" width="958" height="448" rx="29" stroke="url(#panelStroke)" stroke-width="2"/>
  </g>

  <rect x="170" y="132" width="188" height="42" rx="21" fill="#0D1F2B" stroke="#4ADE80" stroke-opacity="0.24"/>
  <text x="264" y="159" fill="#4ADE80" font-family="'SFMono-Regular', Consolas, 'Liberation Mono', Menlo, monospace" font-size="18" letter-spacing="2.8" text-anchor="middle">RESEARCH BASE</text>

  <text x="170" y="255" fill="#F8FAFC" font-family="'Segoe UI', Arial, sans-serif" font-size="78" font-weight="700">Callum&apos;s Lab</text>
  <text x="170" y="315" fill="#A8B6C2" font-family="'Segoe UI', Arial, sans-serif" font-size="31" font-weight="400">Security, Web3, AI notes and research</text>

  <rect x="170" y="366" width="156" height="50" rx="25" fill="#122231" stroke="#D7DEE5" stroke-opacity="0.12"/>
  <rect x="342" y="366" width="124" height="50" rx="25" fill="#14544D" stroke="#4ADE80" stroke-opacity="0.26"/>
  <rect x="482" y="366" width="92" height="50" rx="25" fill="#4ADE80"/>
  <text x="248" y="399" fill="#F8FAFC" font-family="'Segoe UI', Arial, sans-serif" font-size="22" font-weight="600" text-anchor="middle">Security</text>
  <text x="404" y="399" fill="#ECFDF5" font-family="'Segoe UI', Arial, sans-serif" font-size="22" font-weight="600" text-anchor="middle">Web3</text>
  <text x="528" y="399" fill="#052E2B" font-family="'Segoe UI', Arial, sans-serif" font-size="22" font-weight="700" text-anchor="middle">AI</text>

  <text x="170" y="470" fill="#D7DEE5" font-family="'Segoe UI', Arial, sans-serif" font-size="24" font-weight="500">Structured writeups, study notes, and hands-on labs.</text>

  <g transform="translate(760 122)">
    <rect x="0" y="0" width="250" height="320" rx="34" fill="#09131C" stroke="#2E8555" stroke-opacity="0.24" stroke-width="2"/>
    <rect x="34" y="34" width="182" height="182" rx="32" fill="#111E29" stroke="#2E8555" stroke-opacity="0.35" stroke-width="2"/>
    <path d="M150 66H113C92.0132 66 75 83.0132 75 104V118C75 138.987 92.0132 156 113 156H150" stroke="#F8FAFC" stroke-width="15" stroke-linecap="round" stroke-linejoin="round"/>
    <path d="M126 76V144H168" stroke="#4ADE80" stroke-width="15" stroke-linecap="round" stroke-linejoin="round"/>

    <rect x="20" y="242" width="210" height="42" rx="21" fill="#0D1F2B" stroke="#D7DEE5" stroke-opacity="0.1"/>
    <text x="125" y="269" fill="#A8B6C2" font-family="'SFMono-Regular', Consolas, 'Liberation Mono', Menlo, monospace" font-size="16" letter-spacing="1" text-anchor="middle">0xca1x.github.io</text>
  </g>
</svg>
